<svg width="78" height="56" viewBox="0 0 78 56" fill="none" xmlns="http://www.w3.org/2000/svg">
<g id="Mask group">
<mask id="mask0_309_12" style="mask-type:alpha" maskUnits="userSpaceOnUse" x="0" y="0" width="78" height="56">
<rect id="Rectangle 5" width="78" height="56" fill="#D9D9D9"/>
</mask>
<g mask="url(#mask0_309_12)">
<g id="Group">
<g id="Group_2">
<path id="Vector" d="M39.3292 53.1032C39.0614 53.1335 38.845 53.0862 38.6781 53.0272C38.4664 52.7484 38.2318 51.9801 38.1232 51.3763C37.6168 49.511 38.2745 47.5977 39.0207 45.8819C39.3736 45.006 39.7006 44.1196 40.0276 43.2332C40.2313 42.9942 40.4304 42.7521 40.6217 42.5061C40.9293 42.7014 41.2899 42.8123 41.6548 42.8134C41.6603 42.8131 41.6657 42.8127 41.6712 42.8124C41.6825 42.8172 41.6949 42.8241 41.7041 42.8302C42.0465 44.9201 42.4463 46.2877 43.1095 47.3141C43.0834 47.3716 43.0572 47.429 43.0344 47.4873C42.861 47.9744 42.8943 48.5116 42.8526 49.0214C42.8701 49.2768 42.9577 49.5312 42.9294 49.7904C42.8638 50.2491 42.633 50.6761 42.3352 51.0259C41.6003 52.0179 40.5145 52.8425 39.3292 53.1032ZM30.6023 48.994C27.7593 49.9153 24.383 50.6417 21.8333 51.0095C20.9834 51.1077 20.1269 51.1503 19.2733 51.1687C20.0019 50.9485 20.7296 50.7317 21.4643 50.5222C23.0522 50.0488 24.6742 49.6687 26.2054 49.0191C30.1163 47.2864 33.8322 45.1523 37.6629 43.2513C38.3274 42.9298 38.9716 42.5635 39.6321 42.2302C39.8103 42.1867 39.9876 42.1464 40.1621 42.0965C40.2665 42.2283 40.3904 42.3403 40.5255 42.4374C40.4249 42.5322 40.3219 42.6227 40.2222 42.7142C40.2531 42.6258 40.2872 42.5383 40.3193 42.452C40.234 42.5831 40.1524 42.7206 40.0684 42.8538C37.2576 45.3719 33.9466 47.2778 30.6023 48.994ZM41.5803 41.1874C41.6241 41.0774 41.6691 40.9694 41.7144 40.867C41.7435 40.9124 41.7758 40.9587 41.806 41.0062C41.7308 41.0666 41.6567 41.1291 41.5803 41.1874ZM42.0141 40.1094C42.0764 39.9237 42.1408 39.7369 42.2043 39.5534C45.7018 34.9669 48.8869 30.1428 52.4882 25.6432C54.4677 23.5345 56.4316 21.4037 58.2954 19.1923C58.301 19.2851 58.3053 19.3758 58.3105 19.4631C58.4083 22.0783 57.968 24.7105 57.1214 27.1819C55.8383 30.6142 53.0017 34.6186 49.9179 37.3338C47.6282 39.4776 44.8366 41.0357 41.5332 41.6635C41.5292 41.6517 41.5261 41.6366 41.5233 41.6269C41.524 41.6378 41.5259 41.6508 41.5278 41.6639C41.5202 41.6654 41.5147 41.6658 41.5071 41.6673C41.4671 41.6763 41.4293 41.684 41.3935 41.6906C41.4217 41.6122 41.4486 41.5317 41.4777 41.4499C41.6317 41.3694 41.7833 41.2847 41.9349 41.2C41.9612 41.2357 41.9865 41.2747 42.0107 41.3116C41.9908 41.2723 41.9709 41.2329 41.951 41.1936C43.6115 40.2688 45.1441 39.1128 46.5128 37.8001C48.1857 36.0604 49.5672 34.0654 50.9092 32.0705C50.9333 32.034 50.9574 31.9975 50.9815 31.961C50.7656 32.1788 50.5476 32.3979 50.3316 32.6158C47.5496 35.4477 44.9457 38.4903 41.8426 40.9765C41.8114 40.9127 41.778 40.85 41.7468 40.7862C41.8717 40.4938 41.9783 40.243 42.0141 40.1094ZM39.89 40.9403C39.2007 38.8219 38.5309 36.3167 38.4549 34.4486C38.3973 33.4877 38.231 32.5246 38.4421 31.5696C38.8325 29.1103 39.6192 26.7356 40.3221 24.3529C40.8568 22.5445 41.3204 20.7207 41.8284 18.9052C42.2869 17.234 42.7455 15.5628 43.1994 13.8886C43.339 14.2966 43.484 14.7043 43.6093 15.1121C43.9479 16.227 43.8274 16.1356 43.9011 17.2171C43.9255 18.0079 43.9731 18.7995 43.9702 19.5919C44.0452 24.4373 43.6262 29.3222 42.1679 33.9627C41.7853 35.1833 41.4249 36.4082 41.0544 37.6303C41.0584 37.5687 41.0603 37.5083 41.0643 37.4467C41.1065 36.4338 41.142 35.4192 41.1469 34.4053C41.2731 31.4884 41.1624 28.5672 41.2414 25.6466C40.5099 29.1783 40.1841 32.8063 40.3992 36.4072C40.4471 37.224 40.4675 38.0567 40.6782 38.8472C40.6295 39.0025 40.582 39.1598 40.5311 39.3163C40.3616 39.8886 40.1454 40.4484 40.0306 41.0371C39.9837 41.0048 39.9368 40.9726 39.89 40.9403ZM39.1362 40.4322C38.9392 39.7241 38.7277 38.9566 38.5724 38.3403C38.4482 37.8415 38.3392 37.3396 38.2302 36.8377C38.6534 38.2116 39.2036 39.5461 39.778 40.8638C39.5623 40.72 39.3486 40.5751 39.1362 40.4322ZM36.7141 30.8756C36.3605 29.8964 35.7594 29.046 35.1466 28.2193C34.2696 26.9548 33.3882 25.6873 32.2773 24.6144C32.0485 24.3991 31.8134 24.1875 31.5816 23.9768C31.3095 23.168 31.1658 22.3076 30.9555 21.4886C30.5857 19.8551 30.2269 18.2209 29.9274 16.5722C29.9847 18.4765 30.235 20.3824 30.7701 22.2142C30.9282 22.6934 31.0724 23.1975 31.2581 23.6806C30.1865 22.7149 29.0842 21.7839 27.9625 20.8782C27.9695 20.5381 27.9741 20.2134 27.9803 19.8964C28.0095 20.1083 28.0332 20.3206 28.045 20.5368C28.0642 20.1445 28.0679 19.7498 28.0346 19.3595C28.0248 19.2691 28.0117 19.1779 27.9998 19.0887C28.1488 13.1001 28.5642 11.1685 31.7282 4.73271C32.0817 4.06827 32.4014 3.36969 32.7841 2.71665C33.0908 3.46309 33.5002 4.24063 34.0183 4.83961C34.5556 5.54043 35.2389 6.09773 35.8581 6.72022C37.0751 7.99169 38.182 9.19961 39.0606 10.6382C40.0558 12.3032 40.4735 14.2593 40.7334 16.1624C40.7483 16.4278 40.7531 16.6905 40.7516 16.9569C40.7217 17.0617 40.6939 17.1653 40.6619 17.2713C39.8751 20.2278 38.9914 23.1583 38.2191 26.1206C38.3226 23.6094 38.3549 21.097 38.3464 18.5827C38.3558 17.5522 38.3706 16.5212 38.3984 15.4884C38.4113 14.6987 38.4878 13.892 38.2381 13.1268C38.1851 12.9568 38.1288 12.786 38.068 12.6121C38.1459 12.4683 38.2035 12.3136 38.2526 12.1638C38.3925 11.7018 38.3089 11.2586 38.0592 10.9142C38.041 10.8485 38.0249 10.7815 38.0089 10.7145C37.989 10.4209 37.6904 10.2657 37.4203 10.3115C37.329 10.305 37.2347 10.303 37.1443 10.3128C36.9107 10.2556 36.6824 10.2857 36.4933 10.3836C36.2996 10.2977 36.0665 10.2657 35.9175 10.4478C35.4436 10.7129 35.2945 11.296 35.3744 11.8062C35.4988 12.545 36.1946 13.1289 36.9306 13.2151C36.9555 13.4832 36.9579 13.7614 36.9397 14.0967C36.9266 15.1746 36.9454 16.2539 36.9935 17.3304C37.0471 18.9347 37.245 21.2097 37.3825 22.4605C37.5073 24.2468 37.656 26.0305 37.8135 27.8149C37.6421 28.6284 37.505 29.4475 37.4097 30.2706C37.0449 29.5408 36.7639 28.7654 36.5801 27.9678C36.3865 26.9329 36.2765 25.8865 35.9844 24.8718C35.8547 23.8792 35.9716 22.8684 35.9368 21.869C35.9317 20.6519 35.9023 19.4318 35.8829 18.2145C35.619 20.1885 35.369 22.177 35.3166 24.17C35.3239 24.7109 35.5294 25.2136 35.6397 25.7373C35.922 27.4101 36.3987 29.0723 37.3858 30.4737C37.3487 30.8057 37.3214 31.135 37.3031 31.4703C36.4583 29.0972 35.1911 26.8436 34.8068 24.3289C34.5988 22.0512 35.2794 19.6983 34.576 17.4722C34.5468 17.3874 34.524 17.2989 34.5032 17.2092C34.62 17.1277 34.7226 17.0119 34.8035 16.8438C34.9491 16.5677 34.9067 16.2448 34.8289 15.9536C34.6507 15.1754 34.0655 14.4796 33.2698 14.295C32.7997 14.1852 32.4647 14.6469 32.2092 14.9724C31.795 15.5758 32.1666 16.3074 32.7095 16.6999C32.7948 16.8428 32.9547 16.9679 33.1198 16.9997C33.2035 17.0615 33.289 17.1166 33.3763 17.1651C33.48 17.5599 33.5913 17.9532 33.6234 18.3611C33.6652 18.8933 33.6498 20.7351 33.686 21.7027C33.544 25.3262 35.7767 28.3667 37.3029 31.4846C37.2966 31.5814 37.2916 31.6803 37.2866 31.7792C37.3545 32.5082 37.4563 33.2374 37.5788 33.9631C37.3548 32.9147 37.1156 31.8695 36.7141 30.8756ZM49.0982 17.8344C48.9374 17.6391 48.7305 17.4959 48.4826 17.4922C48.7168 17.3598 48.9868 17.2943 49.1519 17.3797C49.2285 17.5417 49.1961 17.6959 49.0982 17.8344ZM44.2715 10.4821C44.3571 10.3565 44.4473 10.2338 44.542 10.1142C45.1106 9.43572 45.7732 8.84698 46.4127 8.23769C47.5582 7.00303 48.9749 6.37996 50.6457 5.64413C51.497 5.25991 52.3168 4.80637 53.0872 4.2769C53.0997 4.37695 53.1102 4.47823 53.1261 4.57919C53.2469 6.82814 54.6689 8.63079 55.1388 10.5991C55.662 12.4152 55.6244 13.705 55.5982 15.6066C55.6064 16.4915 55.706 17.383 55.6089 18.2665C55.4959 18.9757 55.3242 19.6763 55.1 20.3593C55.0385 20.4288 54.9781 20.5003 54.9153 20.5676C53.5691 22.0905 52.1756 23.5756 50.8166 25.0861C48.5891 28.0469 46.564 31.1676 44.7427 34.3966C44.0759 35.5554 43.4194 36.7224 42.7684 37.889C43.4699 35.7923 44.1309 33.6794 44.5964 31.5213C45.5095 29.9379 46.3198 28.3037 47.0781 26.643C47.6119 25.4593 48.1963 24.2604 48.3458 22.9541C48.4907 21.8255 48.6255 20.6943 48.692 19.5572C48.9569 19.4975 49.1898 19.3433 49.3351 19.0617C49.4583 18.8691 49.4919 18.6435 49.4178 18.4321C49.5632 18.2437 49.6533 18.0279 49.6346 17.7901C49.6006 17.4426 49.289 17.1622 48.9589 17.0845C48.7067 17.0635 48.4725 17.1958 48.2928 17.3787C48.2123 17.298 48.1159 17.2238 48.0015 17.1627C47.4379 16.8273 47.0878 17.0379 46.972 17.664C46.8537 18.1587 46.8633 18.7378 47.2696 19.0991C47.3117 19.1426 47.3567 19.1815 47.4039 19.2192C47.3871 19.4493 47.3689 19.6772 47.3544 19.8917C47.2389 21.1248 47.2736 22.3785 47.0166 23.5916C46.324 26.1831 45.4811 28.7342 44.6457 31.2838C44.7049 31.0096 44.7586 30.7357 44.8089 30.461C45.3035 27.5461 45.4735 24.5926 45.4561 21.6373C46.0844 19.2524 46.4825 16.8112 46.6469 14.3468C46.0937 16.3042 45.6897 18.2998 45.4381 20.3147C45.4117 19.2906 45.3689 18.2675 45.3076 17.2467C45.2914 16.3184 44.8996 15.4686 44.5981 14.609C44.3379 13.9967 43.9604 12.5455 43.9868 12.3467C43.8827 11.7262 44.1711 11.0908 44.2715 10.4821ZM57.5746 17.3519C57.1948 17.8338 56.8153 18.3212 56.4267 18.8026C56.4536 18.7023 56.4771 18.6012 56.4994 18.498C56.852 18.1108 57.2117 17.7309 57.5746 17.3519ZM62.1381 13.0368C63.5122 11.8311 65.2549 10.1782 66.4595 9.32458C67.0465 8.91788 67.6604 8.5578 68.3004 8.24763C68.2987 8.27403 68.2991 8.29919 68.2998 8.32982C68.1836 10.3004 67.8978 12.256 67.5952 14.2071C67.1841 16.5231 66.8439 18.8688 66.0358 21.0891C65.531 22.5724 64.2369 24.4351 63.0613 25.8622C62.838 26.1408 62.6243 26.4308 62.4056 26.7124C61.2281 27.3584 60.0787 28.0531 58.9567 28.7855C58.7317 28.9437 58.5162 29.1133 58.3076 29.2902C58.858 28.0715 59.2913 26.8018 59.5584 25.484C61.37 22.9865 62.4387 19.9802 63.3372 17.0411C62.487 18.7577 61.6084 20.4596 60.7831 22.19C60.4566 22.9208 60.1133 23.6471 59.7497 24.3625C60.0341 22.4728 60.1622 20.5179 59.68 18.6555C59.5503 18.0102 59.1331 17.4293 58.517 17.1693C58.2914 17.0623 58.0075 17.0059 57.7872 17.1331C59.1742 15.7054 60.6253 14.3395 62.1381 13.0368ZM59.1966 30.1354C60.2455 29.4084 61.4252 28.908 62.5636 28.3411C65.3612 26.8813 68.3067 25.7512 71.3448 24.9037C72.2468 24.6512 73.2239 24.2791 74.0674 24.0379C73.8353 25.1914 73.4153 26.3179 73.0221 27.4175C72.3745 29.0595 70.7486 31.8198 69.4288 33.6381C68.1368 35.5532 66.6795 37.3435 64.9282 38.8545C62.745 40.9481 60.9081 42.5848 58.1992 43.841C54.3405 45.6593 49.9766 45.4675 45.7471 44.1928C44.4576 43.8132 43.1715 43.3809 41.9506 42.8121C43.7764 42.6335 45.6209 42.8394 47.4273 42.4461C50.0172 42.055 52.4123 40.9547 54.8268 39.9956C55.0245 39.9125 55.2207 39.8218 55.4172 39.7366C55.2057 39.7909 54.9933 39.8486 54.7797 39.9042C51.838 40.6056 48.9747 41.6092 45.996 42.1682C45.0725 42.3738 44.1252 42.4208 43.1893 42.546C43.4348 42.4918 43.6757 42.4346 43.9188 42.3762C46.112 41.8555 48.0951 40.8292 49.8909 39.5127C51.6729 38.9697 53.4751 38.4714 55.1724 37.7033C56.7646 37.0467 58.3892 36.4364 59.8504 35.5137C61.7318 34.4726 63.2984 32.9694 64.9353 31.5979C63.0464 32.7336 61.2667 34.0633 59.261 34.9869C57.7828 35.7725 56.1971 36.3181 54.6773 37.012C53.481 37.6207 52.2392 38.1259 51.0047 38.6438C52.5096 37.3909 53.8737 35.948 55.107 34.4594C55.6656 33.7443 56.1996 33.001 56.6937 32.2328C57.492 31.4924 58.2886 30.7444 59.1966 30.1354ZM44.7371 46.4987C48.0028 49.2054 52.0907 50.8414 56.2078 51.7405C57.262 51.9424 58.3294 52.0887 59.398 52.1835C56.5717 52.2337 53.4937 51.7599 50.7972 50.9246C49.0062 50.4053 47.0653 49.5235 45.207 48.6675C43.3068 47.8074 42.5029 45.2411 41.8815 42.9565C42.8451 44.1314 43.5726 45.4991 44.7371 46.4987ZM38.8727 53.8582C38.2841 55.2259 38.5071 55.6903 38.9748 53.898C39.5478 54.0981 40.1921 54.0792 40.7317 53.7762C42.0735 53.1653 43.3756 51.6001 43.4374 50.093C43.4323 49.7712 43.2854 49.4776 43.2218 49.1669C43.1856 48.6541 43.0659 48.1385 43.1106 47.6241C43.1199 47.5425 43.1381 47.4614 43.1562 47.3803C44.2435 49.0091 46.0286 49.7775 49.3902 51.2709C53.1693 52.8367 57.2942 53.4998 61.3754 53.2898C62.2317 53.2078 63.0919 53.0981 63.927 52.8814C64.0515 52.8378 64.2332 52.8345 64.2519 52.6712C64.2576 52.5832 64.2363 52.5023 64.1911 52.4239C63.3675 51.2275 61.7351 51.3057 60.4403 51.2202C59.0857 51.1437 57.8724 51.0478 56.6073 50.8377C52.5686 50.1673 47.5172 48.4718 44.4494 45.7949C43.5479 44.9231 42.8282 43.887 41.9671 42.9777C43.3914 43.7765 44.921 44.3958 46.4564 44.9468C50.4223 46.3766 54.9746 46.9482 58.9703 45.3331C61.799 44.1717 64.1753 42.2123 66.3593 40.1154C68.03 38.6848 69.4828 37.0383 70.7261 35.2247C71.9959 33.4862 73.18 31.6728 74.1222 29.7337C74.7751 28.3993 75.2433 26.9796 75.624 25.5454C75.753 24.8637 76.0491 24.1194 75.7567 23.4466C74.7376 21.6571 73.1193 22.6648 71.6403 23.1261C69.4348 23.8601 67.1706 24.4387 65.0375 25.3765C64.8062 25.4846 64.574 25.5961 64.3439 25.7063C67.2996 22.7741 68.1387 19.9767 68.9337 15.7135C69.2317 14.1604 69.4398 12.5886 69.5896 11.0138C69.6977 9.87533 69.8499 8.70581 69.5958 7.57598C69.4272 7.10286 68.9851 6.74805 68.5109 6.60666C68.2333 6.5269 67.9824 6.72822 67.7328 6.82428C65.5188 7.78339 63.8422 9.57045 62.2259 11.3056C60.1538 13.4594 58.2358 15.6795 56.5621 18.137C56.6502 17.5411 56.6726 16.9294 56.7233 16.3324C56.8826 14.9696 57.0652 13.5933 56.8146 12.2299C56.6508 11.0168 56.2655 9.85538 55.7531 8.74763C55.3919 7.89707 55.0641 7.38309 54.8812 6.56237C54.687 5.81027 54.5044 4.39345 54.4803 4.0826C54.4245 3.46246 54.5231 3.33491 54.3598 2.91517C54.1034 2.49553 53.6704 2.12704 53.1657 2.07954C53.0433 2.06825 52.9615 2.14657 52.8796 2.2249C52.3233 2.85111 51.978 2.95729 51.422 3.38843C50.0906 4.30113 48.5311 4.80898 47.181 5.68445C46.5267 6.10177 45.9434 6.60795 45.4373 7.19388C44.8348 7.87217 44.1891 8.52459 43.6706 9.27016C43.5338 9.19947 43.3861 9.14914 43.2383 9.13281C43.0171 9.1165 42.9772 9.36545 42.8999 9.52021C42.2287 11.4639 41.714 13.4584 41.1735 15.4424C41.147 15.1471 41.115 14.852 41.0788 14.5594C40.9128 13.3816 40.6399 12.1948 40.1088 11.1232C39.0248 9.07451 37.4744 7.30365 35.8157 5.70257C35.0607 4.97207 34.5439 4.34125 34.0971 3.269C33.8492 2.77106 33.7929 2.25285 33.4782 1.68331C33.3165 1.41797 33.0656 1.21827 32.8058 1.05197C33.0704 1.20702 32.4431 0.795413 32.2451 0.839069C31.997 0.849579 31.8469 1.12267 31.7164 1.30254C31.4022 1.81997 31.1106 2.34703 30.8281 2.8801C29.4606 5.56464 28.246 8.38683 27.6604 11.3543C27.3821 13.0881 27.3738 14.8298 27.475 16.5703C27.3439 16.1574 27.1879 15.7504 26.9957 15.3587C26.7899 14.9974 26.4746 14.7643 26.2691 14.4085C25.8988 13.8258 25.389 12.982 24.9229 12.2626C24.3296 11.1959 23.6855 10.1585 23.1273 9.0743C22.319 7.27315 21.5215 5.45164 20.4318 3.79887C20.3573 3.56227 19.024 2.01618 18.429 3.22109C17.8689 4.54992 17.433 5.94249 17.1487 7.35777C16.9323 9.37493 16.7275 11.4024 16.5717 13.4268C16.4786 15.1243 16.6903 16.8265 17.0235 18.4896C17.4956 20.7503 18.395 22.9 19.4281 24.9583C20.3985 26.9228 21.5269 28.799 22.9384 30.4807C21.7795 28.8452 20.89 27.0599 20.1409 25.2048C18.7882 22.094 18.0078 18.7122 18.0014 15.6487C18.0585 13.2039 18.3914 10.7721 18.585 8.33884C18.7771 7.26769 19.0788 6.21519 19.4246 5.18522C19.5915 4.76977 19.6181 4.53694 19.7371 4.29311C19.9978 4.73002 20.2816 5.24116 20.541 5.70993C21.0926 6.75835 21.5901 7.83521 22.1194 8.89374C22.9796 10.374 23.8835 11.8319 24.8778 13.2263C25.3525 13.9068 25.7902 14.6256 26.3973 15.193C26.8128 15.854 27.0995 16.5951 27.3434 17.3354C27.4286 17.6053 27.5138 17.8753 27.5927 18.1489C27.6719 19.0295 27.7665 19.9125 27.8566 20.7925C27.5606 20.5538 27.2647 20.3152 26.9645 20.079C26.4369 19.6691 25.777 18.9515 25.1628 18.2498C24.6362 17.5626 22.6937 15.1227 21.7248 15.4647C21.5829 15.5466 21.6368 15.7329 21.6975 15.8674C21.6954 15.8883 21.7718 16.1577 21.7651 16.2096C21.8022 16.4451 21.8243 16.6838 21.8517 16.9221C22.0529 18.3028 22.0073 19.295 22.0221 20.8567C22.0932 23.1908 22.0839 25.5374 22.3885 27.8553C22.6855 29.4264 23.411 30.8884 24.0976 32.3222C25.1301 34.3356 26.3889 36.2664 28.0093 37.85C27.8989 37.8008 27.7877 37.7549 27.6773 37.7056C25.4351 36.8255 23.3659 35.6139 21.4024 34.2284C19.2667 32.931 17.205 31.17 14.9586 29.5439C17.0702 31.3523 19.0959 33.2809 21.473 34.7468C22.5678 35.4789 23.6822 36.191 24.8682 36.7631C25.9312 37.2395 27.0341 37.6138 28.1418 37.9769C28.4428 38.2634 28.7553 38.5405 29.0811 38.8015C30.2996 39.7869 31.685 40.4499 33.1483 40.8958C32.1389 40.747 31.1358 40.5749 30.1416 40.3497C27.9793 40.1069 25.7586 39.6409 23.9192 38.5339C22.0846 37.2151 20.0472 35.8383 18.0501 34.6246C19.3014 35.5543 20.5793 36.4518 21.8194 37.3964C22.8599 38.2106 23.8644 39.0993 25.0836 39.6408C26.7985 40.4441 28.6954 40.8091 30.577 40.9032C31.8597 41.1342 33.1638 41.2455 34.4673 41.2384C35.9884 41.569 37.5669 41.7055 39.1048 41.7523C35.7277 41.2789 31.6571 40.3333 29.4497 38.2611C27.6013 36.5662 26.4881 34.6332 25.33 32.28C24.5708 30.6764 23.9081 29.2204 23.8186 27.3827C23.6846 25.7514 23.5952 22.9845 23.5557 20.8665C23.5962 19.7333 23.4826 18.6071 23.3231 17.4847C23.3125 17.4174 23.3053 17.351 23.2968 17.2825C23.8986 17.9432 24.6224 18.9035 25.3598 19.6329C26.1154 20.428 27.0104 21.0635 27.8666 21.7441C29.3169 23.0334 30.4045 23.8458 31.5856 25.0307C32.4885 25.9243 33.1437 26.8537 33.9639 27.9955C34.5227 28.7433 35.0628 29.3607 35.4334 30.1493C35.9588 31.1817 36.2666 32.2919 36.6007 33.4038C36.8981 34.4521 37.2676 35.4786 37.5705 36.5266C37.9663 37.809 38.4284 39.0447 38.8999 40.2722C37.209 39.1387 35.572 38.0645 33.9303 36.8547C32.7375 35.9138 31.7193 34.4145 30.8396 32.9935C30.5009 32.4068 30.2302 31.7864 29.916 31.1883C29.9808 31.374 30.0405 31.5655 30.1011 31.7536C30.7399 33.76 31.8718 35.6765 33.449 37.0874C35.1807 38.4628 37.1044 39.5691 39.0414 40.6395C39.2077 41.0744 39.3783 41.5069 39.5434 41.9397C39.4665 41.6254 39.3503 41.204 39.2217 40.7416C39.4416 40.8632 39.6623 40.9814 39.8822 41.103C39.9141 41.1778 39.9448 41.2505 39.9788 41.324C39.9529 41.514 39.9489 41.7028 40.0173 41.8751C39.752 41.9633 39.4848 42.0583 39.2222 42.1562C38.0048 42.3027 36.7838 42.3694 35.5547 42.3391C34.2088 42.3169 32.858 42.3399 31.5189 42.1923C28.2843 41.6282 25.091 40.803 22.1131 39.715C18.4336 38.439 15.042 37.0307 12.2602 34.6829C11.6296 34.0896 10.3881 32.6289 9.68154 31.7377C9.35392 31.2632 9.05316 30.3608 8.80765 29.5932C8.34125 28.3402 8.04849 27.0406 7.79694 25.7342C7.68606 25.0188 7.2912 23.9533 7.13463 23.3348C7.2246 23.3732 7.31244 23.4129 7.39939 23.4559C7.77126 23.645 8.67279 24.2429 9.26623 24.5273C10.7756 25.2289 12.3904 25.6974 14.0108 26.0581C15.7237 26.4079 17.4564 26.8507 18.9609 27.7641C20.7663 29.0518 22.2352 30.7059 23.8226 32.2324C22.9895 31.3323 22.2189 30.3792 21.3994 29.4685C20.7182 28.7435 19.9545 28.1055 19.2032 27.4548C16.592 25.5394 13.2335 25.3038 10.3415 24.1493C9.37162 23.7999 8.71492 23.4109 7.83416 22.849C7.40947 22.583 6.96366 22.349 6.49687 22.1666C6.29542 22.0965 6.09309 21.9563 5.87334 22.0013C5.43246 22.0497 5.866 23.0844 5.90879 23.3591C6.32448 24.534 6.43019 25.7834 6.71406 26.9892C7.18299 28.5401 7.56831 30.2494 8.42391 31.6335C8.8395 32.2408 9.36325 32.7518 9.6814 33.1414C10.2389 33.7939 10.7797 34.4616 11.416 35.0404C14.2011 37.4625 17.5852 39.0926 21.0481 40.3016C24.7023 41.6854 28.5296 42.7038 32.4332 43.0031C34.3844 42.9781 36.3525 42.8698 38.2767 42.5242C37.7192 42.7472 37.1629 42.9723 36.5987 43.1739C32.7224 44.6437 28.9929 46.4608 25.1614 48.0374C22.2992 49.0771 19.3161 49.746 16.4132 50.6566C16.0051 50.7764 15.5954 50.8887 15.1867 50.9976C14.8468 51.1769 15.3174 51.7327 15.4952 51.8842C15.9111 52.2767 16.4915 52.3624 17.0401 52.3196C17.5644 52.3276 18.0869 52.3422 18.6102 52.3536C20.8608 52.3872 23.1125 52.2762 25.3161 51.7834C27.5751 51.3914 29.839 50.827 31.9262 49.8734C34.6069 48.1817 37.2223 46.2988 39.3771 43.9703C39.1338 44.3706 38.8917 44.7731 38.6495 45.1755C37.8272 46.5003 36.975 47.9102 36.9132 49.5105C36.9251 50.8225 37.1155 52.2969 38.0401 53.2967C38.2696 53.5426 38.5605 53.7333 38.8727 53.8582Z" fill="#030404"/>
</g>
<g id="Group_3">
<path id="Vector_2" d="M51.2825 13.6247C51.4232 13.6678 51.4182 13.7667 51.3691 13.8628C51.2963 13.7806 51.2161 13.7054 51.1215 13.6442C51.1288 13.6372 51.1351 13.6336 51.1423 13.6266C51.1894 13.6248 51.2373 13.6198 51.2825 13.6247ZM51.5645 13.4478C51.5798 13.4841 51.5906 13.5175 51.5959 13.5511C51.5958 13.6048 51.5843 13.668 51.5694 13.7302C51.5071 13.6419 51.4109 13.5732 51.3088 13.5333C51.3912 13.4999 51.4772 13.4728 51.5645 13.4478ZM50.4893 13.4444C50.3837 13.4376 50.2824 13.4481 50.2134 13.4851C50.1208 13.5301 50.1547 13.6573 50.129 13.74C49.9862 14.2263 50.1887 14.7336 50.5454 15.0727C50.6637 15.1992 50.786 15.2839 50.9101 15.3422C50.9114 15.3641 50.9148 15.3847 50.9161 15.4065C51.0299 16.4451 50.7703 17.4677 50.608 18.4877C49.981 22.9391 47.5804 26.5591 45.2307 30.4235C48.1716 27.226 51.188 23.7335 51.876 19.2948C52.1293 17.9285 52.355 16.5047 51.9567 15.1447C52.2534 14.8661 52.4404 14.422 52.3956 13.9678C52.3518 13.6767 52.1515 13.4422 51.9863 13.2099C51.8717 13.0163 51.6243 12.71 51.3272 12.7629C51.074 12.9261 50.7464 12.9995 50.5621 13.2527C50.5284 13.3117 50.5072 13.3776 50.4893 13.4444Z" fill="#030404"/>
</g>
</g>
</g>
</g>
</svg>
